<?xml version="1.0" encoding="UTF-8"?>
<svg xmlns="http://www.w3.org/2000/svg" xmlns:xlink="http://www.w3.org/1999/xlink" width="64px" height="64px" viewBox="0 0 64 64" version="1.1">
<g id="surface1">
<path style=" stroke:none;fill-rule:nonzero;fill:rgb(0%,0%,0%);fill-opacity:1;" d="M 0 6 C 0 4.894531 0.894531 4 2 4 L 8 4 C 8.917969 4 9.71875 4.625 9.941406 5.515625 L 11.558594 12 L 58 12 C 58.59375 12 59.15625 12.265625 59.539062 12.722656 C 59.917969 13.179688 60.074219 13.785156 59.964844 14.367188 L 53.964844 46.367188 C 53.785156 47.3125 52.960938 48 52 48 L 16 48 C 15.039062 48 14.214844 47.3125 14.035156 46.367188 L 8.039062 14.429688 L 6.441406 8 L 2 8 C 0.894531 8 0 7.105469 0 6 M 12.40625 16 L 17.660156 44 L 50.339844 44 L 55.59375 16 Z M 20 48 C 15.582031 48 12 51.582031 12 56 C 12 60.417969 15.582031 64 20 64 C 24.417969 64 28 60.417969 28 56 C 28 51.582031 24.417969 48 20 48 M 48 48 C 43.582031 48 40 51.582031 40 56 C 40 60.417969 43.582031 64 48 64 C 52.417969 64 56 60.417969 56 56 C 56 51.582031 52.417969 48 48 48 M 20 52 C 22.210938 52 24 53.789062 24 56 C 24 58.210938 22.210938 60 20 60 C 17.789062 60 16 58.210938 16 56 C 16 53.789062 17.789062 52 20 52 M 48 52 C 50.210938 52 52 53.789062 52 56 C 52 58.210938 50.210938 60 48 60 C 45.789062 60 44 58.210938 44 56 C 44 53.789062 45.789062 52 48 52 "/>
</g>
</svg>
